<?xml version="1.0" standalone="no"?>
<!DOCTYPE svg PUBLIC "-//W3C//DTD SVG 20010904//EN"
 "http://www.w3.org/TR/2001/REC-SVG-20010904/DTD/svg10.dtd">
<svg version="1.0" xmlns="http://www.w3.org/2000/svg"
 width="640.000000pt" height="640.000000pt" viewBox="0 0 640.000000 640.000000"
 preserveAspectRatio="xMidYMid meet">

<g transform="translate(0.000000,640.000000) scale(0.100000,-0.100000)"
fill="#000000" stroke="none">
<path d="M2777 6380 c-11 -10 -26 -16 -38 -13 -21 6 -25 -7 -7 -25 9 -9 19 -6
44 13 31 24 32 24 26 3 -3 -11 -14 -23 -24 -26 -15 -3 -18 -11 -14 -28 8 -32
-14 -42 -35 -15 -21 26 -39 20 -39 -14 0 -13 -4 -27 -10 -30 -6 -3 -10 4 -10
17 -1 13 -8 34 -16 48 -15 25 -15 25 -10 2 9 -43 -13 -80 -60 -104 -32 -15
-44 -28 -44 -43 0 -20 -19 -35 -62 -49 -10 -3 -18 -14 -18 -25 0 -11 -11 -28
-24 -38 -13 -11 -25 -28 -27 -39 -3 -15 -15 -20 -54 -25 -28 -3 -66 -15 -85
-28 -37 -24 -27 -24 47 2 43 14 58 1 44 -37 -6 -14 -17 -29 -24 -32 -9 -3 -12
-22 -9 -69 4 -53 2 -64 -10 -60 -28 11 -52 -53 -54 -146 -2 -89 -20 -139 -50
-139 -21 0 -17 28 6 42 20 13 28 38 12 38 -17 0 -52 -61 -52 -90 0 -17 4 -29
9 -25 5 3 12 1 16 -5 3 -5 2 -10 -3 -10 -11 0 -8 -111 2 -129 4 -6 15 -11 24
-11 13 0 14 -2 4 -8 -15 -10 -27 -459 -13 -537 l9 -50 2 50 c1 28 2 54 1 59
-1 5 5 56 14 115 17 118 110 416 150 485 52 89 139 156 167 128 7 -7 19 -7 34
-2 24 10 31 8 112 -25 37 -16 47 -17 83 -5 33 11 56 12 122 2 70 -10 84 -10
93 3 17 22 60 35 122 35 35 0 66 6 79 15 16 11 42 14 104 11 120 -6 181 7 244
49 29 19 58 35 65 35 6 0 25 7 41 16 28 14 34 14 66 -1 23 -11 48 -15 76 -11
23 3 75 9 116 14 l74 9 50 -37 c50 -38 142 -147 153 -182 3 -10 10 -18 15 -18
5 0 9 -5 9 -12 0 -6 6 -19 13 -27 34 -40 49 -113 53 -254 4 -147 13 -215 45
-352 10 -44 19 -97 19 -118 0 -21 9 -67 21 -102 11 -35 18 -68 16 -72 -6 -10
15 -111 38 -185 18 -57 35 -68 35 -22 0 13 4 24 9 24 5 0 7 9 4 20 -3 11 0 35
7 53 25 62 83 182 98 199 11 14 12 21 3 31 -12 15 -9 62 10 154 7 37 7 81 -1
150 -18 170 -19 264 -2 306 14 36 13 42 -6 90 -11 29 -26 79 -32 112 -7 33
-16 69 -20 80 -25 62 -32 113 -20 153 17 55 9 78 -50 142 -27 30 -55 70 -61
88 -13 38 -32 61 -71 81 -16 8 -30 28 -38 55 -8 22 -17 45 -21 50 -13 15 -22
-23 -9 -39 6 -7 10 -24 8 -37 -3 -20 -7 -17 -33 24 -16 26 -40 51 -52 57 -15
7 -23 19 -23 35 0 17 -11 33 -30 48 -36 26 -37 33 -7 43 21 8 21 8 -5 12 -19
3 -41 -7 -80 -34 -29 -21 -54 -41 -56 -45 -2 -5 -10 -8 -17 -8 -9 0 -13 11
-12 32 2 25 -2 34 -18 36 -17 4 -18 2 -6 -12 8 -9 9 -16 3 -16 -6 0 -16 13
-23 29 -13 30 -53 56 -69 46 -5 -3 -18 3 -30 15 -23 23 -46 26 -53 8 -6 -19
-34 44 -29 65 2 13 10 17 23 14 10 -3 21 -2 24 3 8 14 -24 20 -51 10 -22 -9
-24 -14 -19 -47 6 -35 5 -36 -9 -20 -8 11 -12 26 -9 34 5 13 2 13 -15 4 -28
-15 -48 -14 -66 4 -26 27 -57 33 -88 18 -42 -21 -92 -14 -96 15 -3 22 -3 22
-205 22 -169 -1 -199 -3 -185 -14 20 -15 14 -26 -14 -26 -11 0 -18 7 -18 20 0
11 -6 20 -13 20 -19 0 -37 -21 -37 -43 0 -10 -5 -27 -10 -38 -10 -17 -13 -18
-26 -4 -8 8 -13 19 -9 24 3 5 0 13 -6 17 -6 3 -15 0 -20 -7 -5 -8 -9 -9 -9 -4
0 6 -4 4 -9 -4 -15 -23 -33 -2 -26 30 6 26 4 29 -17 28 -13 0 -31 -8 -41 -19z
m807 -81 c-3 -5 -10 -7 -15 -3 -5 3 -7 10 -3 15 3 5 10 7 15 3 5 -3 7 -10 3
-15z m-964 -113 c0 -9 -7 -12 -21 -9 -16 4 -17 8 -7 14 19 13 28 11 28 -5z"/>
<path d="M2260 5780 c0 -5 7 -10 15 -10 8 0 15 5 15 10 0 6 -7 10 -15 10 -8 0
-15 -4 -15 -10z"/>
<path d="M3554 4585 c-16 -5 -31 -13 -34 -17 -3 -4 -17 -9 -30 -12 -53 -10
-146 -49 -167 -69 -15 -13 -23 -32 -23 -54 0 -29 3 -33 25 -33 14 0 33 4 43 9
36 19 125 51 143 51 10 0 21 5 24 10 3 6 16 10 29 10 12 0 26 4 31 9 6 4 49
18 96 29 47 12 98 28 114 36 l28 15 -24 5 c-13 3 -37 8 -54 11 -48 11 -169 11
-201 0z"/>
<path d="M4675 4550 c3 -5 8 -10 11 -10 2 0 4 5 4 10 0 6 -5 10 -11 10 -5 0
-7 -4 -4 -10z"/>
<path d="M4706 4470 c4 -44 3 -70 -3 -70 -6 0 -12 -61 -15 -152 -4 -121 -10
-164 -26 -205 -17 -45 -18 -54 -6 -64 8 -7 16 -10 17 -8 14 18 41 179 49 289
5 74 12 161 15 193 3 38 1 63 -7 72 -25 30 -31 15 -24 -55z"/>
<path d="M2345 4493 c-11 -3 -26 -14 -33 -24 -7 -11 -19 -19 -26 -19 -18 0
-39 -84 -31 -121 8 -37 28 -42 58 -15 47 44 96 66 147 66 64 0 257 -64 290
-96 29 -29 35 -28 -120 -25 -172 3 -264 -23 -293 -85 -25 -52 -22 -74 10 -74
14 0 41 -11 59 -25 18 -14 48 -28 66 -32 18 -3 42 -10 53 -16 34 -17 91 -19
121 -4 36 18 75 25 189 33 77 5 88 4 77 -8 -9 -12 -8 -19 9 -36 32 -36 51 -26
70 36 10 33 10 53 1 93 -7 28 -12 65 -12 83 0 19 -9 45 -20 59 -11 14 -20 32
-20 40 0 23 -11 47 -22 47 -13 0 -47 41 -48 57 0 21 -21 26 -60 13 -35 -12
-41 -11 -66 9 -14 11 -43 25 -63 30 -32 9 -140 14 -211 10 -14 0 -43 1 -65 4
-22 3 -49 3 -60 0z m347 -266 c55 -15 79 -33 28 -22 -48 11 -218 8 -259 -5
-28 -8 -32 -7 -23 3 15 14 110 35 167 35 22 1 61 -4 87 -11z m-140 -98 c3 -19
9 -44 13 -55 6 -19 4 -21 -22 -16 -34 6 -93 48 -93 66 0 14 67 47 85 42 5 -1
13 -18 17 -37z m258 16 c52 -27 34 -60 -34 -64 -36 -2 -38 0 -32 21 3 13 6 31
6 41 0 21 22 22 60 2z m-125 -5 c3 -5 -1 -10 -9 -10 -9 0 -16 5 -16 10 0 6 4
10 9 10 6 0 13 -4 16 -10z"/>
<path d="M3665 4354 c-57 -8 -200 -58 -240 -84 -47 -30 -59 -67 -23 -72 20 -3
23 -8 20 -39 l-3 -37 98 -7 c54 -4 100 -11 103 -16 3 -4 22 -4 43 0 21 5 37 5
37 0 0 -18 18 -8 23 13 4 12 9 19 13 15 4 -4 13 1 20 11 11 15 16 15 35 3 20
-12 24 -11 36 5 7 10 13 15 13 11 0 -10 34 5 66 30 86 66 125 93 137 93 6 0
18 4 25 9 9 6 -4 17 -45 37 -54 26 -67 28 -193 30 -74 1 -148 0 -165 -2z m245
-20 c7 -7 -27 -10 -108 -10 -64 -1 -128 -4 -142 -9 -14 -4 -22 -4 -18 0 26 28
243 44 268 19z m5 -65 c8 -12 -23 -49 -42 -49 -8 0 -13 12 -13 30 0 25 4 30
24 30 14 0 28 -5 31 -11z m-258 -21 c-3 -13 0 -40 8 -62 l14 -39 -72 6 c-40 2
-83 1 -96 -5 -14 -5 -31 -6 -39 -3 -11 4 -2 14 29 33 24 16 51 35 59 43 52 51
106 66 97 27z m123 -2 c0 -17 -14 -29 -23 -20 -8 8 3 34 14 34 5 0 9 -6 9 -14z"/>
<path d="M2283 4195 c0 -27 2 -38 4 -22 2 15 2 37 0 50 -2 12 -4 0 -4 -28z"/>
<path d="M4600 4112 c0 -5 -22 -35 -50 -66 -27 -31 -50 -61 -50 -66 0 -16 19
-21 38 -11 43 23 105 151 73 151 -6 0 -11 -4 -11 -8z"/>
<path d="M2650 3940 c-9 -6 -10 -10 -3 -10 6 0 15 5 18 10 8 12 4 12 -15 0z"/>
<path d="M2511 3915 c9 -9 23 -13 32 -9 28 10 19 24 -15 24 -29 0 -31 -2 -17
-15z"/>
<path d="M2583 3923 c9 -2 23 -2 30 0 6 3 -1 5 -18 5 -16 0 -22 -2 -12 -5z"/>
<path d="M2650 3900 c-8 -5 -32 -10 -52 -10 -20 0 -39 -4 -42 -9 -6 -9 102 -6
111 3 12 11 -3 25 -17 16z"/>
<path d="M2322 3700 c0 -28 25 -114 27 -90 0 8 -6 38 -13 65 -9 30 -14 40 -14
25z"/>
<path d="M2867 3698 c-20 -16 -67 -103 -67 -126 0 -9 -11 -30 -25 -46 -14 -16
-25 -39 -25 -52 0 -13 -5 -26 -10 -29 -6 -3 -19 -26 -30 -51 -13 -27 -31 -48
-45 -54 -14 -5 -25 -13 -25 -18 0 -4 -18 -9 -40 -10 -33 -2 -40 0 -40 15 0 18
-10 21 -63 23 -9 1 -15 5 -12 11 4 5 1 9 -4 9 -6 0 -11 -8 -11 -17 0 -12 -7
-7 -20 15 -11 18 -20 39 -20 47 0 15 -18 30 -26 22 -5 -5 28 -103 59 -177 27
-63 127 -233 162 -276 19 -23 35 -45 35 -47 0 -3 16 -29 35 -58 19 -30 37 -69
41 -89 11 -73 14 -80 34 -80 12 0 20 -7 20 -16 0 -19 57 -141 69 -148 5 -3 21
-30 36 -60 20 -40 26 -62 21 -83 -25 -101 -26 -223 -1 -223 16 0 24 31 26 90
0 40 26 133 28 103 1 -7 8 -13 16 -13 13 0 15 -16 9 -117 -5 -88 -3 -126 7
-148 13 -28 14 -22 19 82 3 61 8 114 12 118 14 15 29 -8 24 -38 -9 -56 37
-209 68 -229 6 -3 25 -18 41 -32 17 -14 33 -26 38 -26 4 0 7 -5 7 -11 0 -5 -4
-7 -10 -4 -5 3 -10 1 -10 -5 0 -7 -17 7 -39 30 -23 25 -41 37 -45 31 -4 -6 -3
-11 3 -11 6 0 13 -17 17 -37 4 -21 13 -44 21 -51 7 -7 13 -22 13 -32 0 -10 10
-26 22 -34 17 -12 19 -18 9 -30 -7 -9 -8 -17 -2 -20 5 -3 11 0 14 6 3 8 9 2
15 -14 12 -29 39 -42 68 -31 17 6 18 5 5 -11 -13 -15 -13 -19 0 -27 9 -6 18
-4 25 6 17 22 42 18 46 -7 2 -13 10 -23 18 -23 8 0 22 -5 30 -10 8 -5 35 -8
60 -8 44 1 47 -1 62 -36 9 -20 15 -37 14 -38 -1 -1 -20 1 -44 4 -33 4 -42 10
-42 25 0 20 -26 36 -38 23 -4 -4 -1 -10 6 -12 6 -3 12 -14 12 -25 0 -15 -4
-18 -17 -13 -10 4 -31 10 -48 14 -16 4 -30 13 -31 21 -2 32 -5 33 -26 11 -20
-22 -22 -23 -34 -6 -7 9 -17 14 -23 11 -6 -4 -28 2 -50 14 -22 11 -52 20 -67
20 l-27 0 24 -18 c13 -10 32 -21 42 -25 9 -3 17 -16 17 -27 0 -23 25 -27 34
-5 3 8 10 15 16 15 5 0 10 -7 10 -15 0 -8 7 -15 15 -15 8 0 15 -4 15 -8 0 -4
20 -18 45 -30 36 -17 45 -27 45 -47 0 -22 -3 -25 -25 -19 -15 4 -25 2 -25 -5
0 -6 7 -8 15 -5 8 4 15 1 15 -6 0 -7 8 -19 18 -27 15 -13 14 -14 -15 -9 -24 4
-35 1 -42 -11 -8 -15 -10 -15 -25 -1 -9 9 -16 30 -16 47 0 30 -9 39 -23 24 -4
-3 -2 -12 4 -20 9 -10 7 -19 -5 -38 -17 -26 -32 -32 -38 -14 -6 19 -38 -3 -38
-26 0 -13 -11 -30 -25 -39 -14 -10 -30 -28 -35 -42 -7 -17 -17 -24 -35 -24
-14 0 -25 -4 -25 -10 0 -5 -12 -10 -26 -10 -16 0 -34 -10 -46 -25 -15 -19 -29
-25 -58 -25 -66 0 -90 -14 -90 -54 0 -37 -11 -45 -63 -47 -21 -1 -25 -3 -11
-6 21 -4 44 -40 44 -68 0 -8 4 -15 9 -15 5 0 16 -3 25 -6 14 -5 14 -2 1 36
-16 46 -13 60 14 60 14 0 17 -7 15 -32 l-3 -33 7 30 c7 26 12 30 36 27 16 -2
32 1 35 6 3 6 11 4 19 -4 7 -8 8 -14 2 -14 -5 0 -10 -9 -10 -21 0 -15 5 -19
18 -16 48 14 92 16 116 7 24 -9 26 -7 27 18 0 23 1 24 8 7 6 -14 17 -20 40
-20 28 0 31 3 31 31 0 32 22 60 38 50 6 -3 15 8 22 25 9 21 15 27 21 18 6 -10
12 -10 26 3 16 15 43 22 67 19 5 0 3 -8 -4 -16 -11 -13 -8 -15 14 -15 23 0 26
3 21 20 -7 23 22 41 35 21 4 -8 24 -11 50 -9 33 2 45 8 51 24 7 21 6 22 -51
17 -85 -8 -148 3 -155 29 -4 11 -2 25 4 31 6 6 12 27 12 46 2 31 3 32 6 9 2
-16 10 -28 16 -28 8 0 7 -3 -2 -9 -17 -11 -7 -41 14 -41 21 0 31 30 14 41 -9
6 -10 9 -2 9 15 0 30 73 16 77 -7 3 -9 20 -6 43 4 25 1 46 -7 55 -10 12 -9 16
5 21 27 11 40 -11 29 -48 -12 -40 -7 -68 12 -68 17 0 17 5 2 30 -9 15 -10 22
-1 31 19 19 33 1 26 -33 -6 -29 -5 -31 20 -26 24 5 27 2 27 -23 0 -27 -3 -29
-40 -29 -32 0 -40 -4 -40 -19 0 -14 6 -17 26 -13 24 4 26 2 19 -19 -3 -13 -9
-32 -11 -41 -7 -23 21 -24 30 -2 3 8 10 12 16 9 6 -4 13 7 16 24 4 20 13 31
27 33 29 4 41 29 33 70 -5 25 -13 37 -29 42 -27 7 -13 24 23 28 24 3 25 0 26
-52 1 -30 -4 -61 -10 -69 -8 -11 -8 -15 2 -19 21 -7 -6 -31 -28 -25 -17 4 -20
0 -20 -26 0 -31 23 -44 33 -18 3 6 6 3 6 -9 1 -23 -26 -84 -37 -84 -4 0 -6
-18 -4 -40 2 -22 1 -40 -3 -40 -14 0 -34 35 -35 58 0 12 -4 22 -10 22 -14 0
-13 -107 1 -116 6 -3 16 -1 22 5 6 6 24 11 39 11 28 0 39 15 16 22 -7 3 -9 11
-4 24 7 15 9 16 14 4 12 -34 62 -42 62 -10 0 11 4 20 8 20 4 0 8 15 9 34 1 29
-3 35 -24 41 -19 4 -24 11 -20 25 4 14 0 20 -11 20 -12 0 -3 13 26 40 24 22
47 40 53 40 6 0 7 5 4 10 -3 6 -1 10 4 10 6 0 11 -12 11 -26 0 -17 -6 -28 -20
-31 -20 -5 -28 -33 -10 -33 7 0 7 -6 1 -18 -12 -23 -3 -60 20 -85 34 -37 119
6 119 61 0 37 12 53 30 42 13 -8 12 -10 -2 -10 -13 0 -18 -8 -18 -30 0 -22 4
-28 15 -23 9 3 25 -3 35 -12 23 -21 22 -22 25 29 2 44 19 59 57 52 15 -3 30
-1 33 4 3 6 17 10 29 10 13 0 34 8 46 18 27 22 36 72 14 72 -8 0 -14 5 -14 10
0 17 16 11 45 -16 25 -23 29 -24 44 -10 10 9 23 16 29 16 6 0 15 6 19 13 4 7
20 22 35 34 73 55 299 274 361 348 14 17 41 47 61 68 20 21 50 59 68 84 17 25
39 54 50 65 34 34 15 59 -23 30 -36 -26 -67 -42 -82 -42 -7 0 -22 -7 -33 -15
-19 -15 -19 -15 1 -30 17 -14 18 -17 5 -25 -10 -6 -16 -6 -19 1 -2 6 -10 1
-18 -10 -8 -12 -20 -21 -27 -21 -7 0 -25 -18 -40 -40 -19 -29 -33 -40 -51 -40
-15 0 -25 -6 -25 -14 0 -8 -9 -18 -21 -21 -11 -4 -18 -12 -16 -19 4 -9 -2 -11
-19 -8 -14 2 -24 0 -24 -7 0 -6 -7 -11 -15 -11 -9 0 -15 -9 -15 -23 0 -29 -29
-57 -58 -57 -12 0 -26 -9 -32 -20 -12 -22 -36 -27 -43 -7 -4 7 -8 3 -12 -10
-5 -16 -15 -23 -31 -23 -16 0 -24 -6 -25 -17 0 -10 -3 -13 -5 -6 -3 7 -12 9
-20 6 -8 -3 -20 0 -27 5 -7 6 -18 7 -26 2 -21 -12 -38 -2 -36 21 2 24 24 40
46 34 23 -8 59 40 58 78 l-1 32 -10 -28 c-7 -19 -15 -26 -25 -23 -8 3 -23 1
-34 -4 -16 -9 -19 -7 -19 9 0 18 -3 19 -25 9 -29 -13 -32 -25 -7 -31 13 -4 11
-5 -5 -6 -14 -1 -23 5 -23 13 0 9 -7 12 -20 9 -11 -3 -20 0 -20 6 0 6 7 11 15
11 8 0 15 7 15 15 0 16 -25 21 -34 6 -11 -18 -58 -22 -70 -7 -7 11 -16 13 -26
6 -12 -8 -12 -10 3 -16 28 -10 20 -21 -30 -38 -67 -23 -81 -21 -49 9 15 14 31
25 36 25 4 0 13 14 19 30 9 28 31 42 31 20 0 -14 27 -12 33 3 3 7 6 5 6 -5 1
-20 9 -22 30 -9 9 6 10 11 2 15 -6 4 -11 13 -11 19 0 19 52 73 88 91 17 9 32
21 32 26 0 6 6 10 14 10 8 0 17 7 20 16 4 9 13 14 21 10 22 -8 18 1 -13 32
-31 30 -62 31 -62 2 0 -22 -16 -35 -25 -20 -10 16 -42 12 -49 -6 -4 -10 -12
-14 -22 -10 -9 4 -27 0 -39 -8 -29 -19 -77 -24 -82 -8 -3 6 1 12 8 12 29 0
210 105 263 153 11 9 23 17 27 17 3 0 22 14 40 31 19 16 50 41 69 54 19 14 46
39 60 56 14 17 35 41 48 52 12 11 22 24 22 29 0 8 9 19 54 70 45 51 173 328
201 433 29 113 17 155 -44 155 -24 0 -27 -10 -9 -28 10 -10 10 -17 0 -32 -15
-24 -15 -33 -2 -25 15 10 12 -11 -4 -24 -8 -7 -17 -30 -21 -51 -4 -22 -15 -50
-24 -62 -10 -13 -21 -30 -24 -38 -3 -8 -6 3 -6 26 -1 22 -8 49 -16 60 -8 10
-15 17 -15 14 -8 -41 -9 -260 -1 -265 7 -3 7 -13 2 -23 -5 -9 -16 -34 -25 -54
-21 -50 -105 -165 -153 -208 -53 -49 -148 -120 -160 -120 -6 0 -16 -6 -22 -14
-13 -16 -61 -27 -61 -15 0 5 -7 9 -15 9 -16 0 -17 11 -16 173 1 79 -1 87 -18
87 -31 0 -33 27 -4 48 25 18 26 21 10 36 -24 24 -21 45 7 52 17 4 24 13 24 30
0 14 -6 24 -14 24 -24 0 -15 15 26 46 22 16 42 36 45 44 8 23 120 140 134 140
9 0 11 9 6 30 -5 24 -3 30 9 30 12 0 15 6 11 23 -4 15 1 30 15 44 11 13 23 37
27 55 3 18 9 35 12 38 13 11 34 77 39 119 4 43 4 44 -23 37 -28 -7 -104 -80
-132 -126 -8 -14 -35 -40 -59 -56 -46 -30 -65 -58 -91 -134 -14 -40 -33 -66
-104 -141 -15 -16 -38 -48 -53 -73 -14 -25 -35 -48 -46 -51 -11 -3 -20 -10
-20 -14 0 -5 -13 -11 -30 -14 -31 -7 -42 -27 -15 -27 8 0 15 -4 15 -10 0 -5
-7 -10 -15 -10 -8 0 -15 -5 -15 -11 0 -6 -9 -8 -20 -4 -11 3 -20 2 -20 -3 0
-11 -80 -67 -95 -67 -5 0 -15 -8 -21 -19 -8 -14 -26 -19 -72 -23 -58 -4 -63
-2 -73 21 -10 21 -16 24 -48 18 -20 -3 -48 -18 -64 -33 -28 -28 -51 -29 -61
-3 -4 10 -14 12 -31 8 -18 -4 -27 -2 -32 12 -10 26 -37 51 -51 46 -7 -2 -12 3
-12 12 0 9 -7 16 -15 16 -8 0 -15 5 -15 10 0 6 -4 10 -10 10 -5 0 -10 -7 -10
-15 0 -20 -26 -19 -34 1 -3 8 -10 13 -15 9 -18 -11 -64 43 -65 77 -1 18 -5 36
-11 40 -18 13 6 22 25 10 11 -7 29 -12 41 -12 11 0 33 -9 47 -21 21 -16 38
-20 82 -18 59 3 120 -8 120 -20 0 -5 11 -6 25 -3 15 2 25 0 25 -7 0 -16 39
-13 56 4 9 8 24 15 35 15 10 0 19 7 19 15 0 8 5 16 10 16 28 4 60 19 60 30 0
13 33 49 46 49 11 0 34 42 34 63 0 9 -49 13 -183 15 -154 2 -191 6 -242 24
-33 11 -67 26 -75 33 -8 7 -25 16 -36 19 -19 6 -94 106 -94 126 0 14 80 -9
110 -31 30 -23 120 -39 120 -21 0 11 -23 22 -48 23 -27 0 -62 53 -69 105 l-6
47 39 -8 c105 -20 168 -21 238 -4 128 32 150 38 214 50 34 6 65 16 68 20 8 14
44 10 44 -4 0 -22 -31 -58 -48 -55 -10 2 -18 -5 -20 -17 -7 -33 -24 -47 -51
-42 -18 4 -32 -3 -52 -25 -25 -25 -31 -28 -50 -17 -18 9 -25 9 -34 -5 -8 -10
-27 -16 -53 -16 -41 0 -63 -14 -40 -24 9 -3 7 -9 -6 -20 -14 -11 -33 -15 -68
-11 -28 3 -48 1 -48 -5 0 -6 9 -10 20 -11 11 -1 28 -2 38 -2 34 -2 97 15 122
32 14 10 48 26 75 36 28 10 62 27 77 37 14 10 33 18 42 18 8 0 31 9 51 20 42
24 56 25 49 6 -8 -20 30 -9 52 15 22 24 34 24 34 -1 0 -13 5 -18 15 -14 8 4
26 -1 39 -9 18 -12 27 -13 47 -3 31 15 49 63 29 77 -12 9 -10 10 7 6 28 -6 43
12 32 38 -11 27 -11 85 0 85 13 0 12 80 -1 104 -15 28 -32 41 -102 77 -33 17
-66 37 -73 45 -18 17 -43 18 -43 2 0 -7 15 -31 34 -53 29 -34 32 -43 23 -63
-9 -18 -16 -22 -38 -17 -21 5 -31 1 -43 -17 -15 -20 -18 -21 -38 -9 -20 12
-24 11 -36 -8 -8 -11 -21 -21 -29 -21 -7 0 -16 -7 -20 -16 -4 -12 -9 -9 -19
15 -12 28 -16 30 -33 19 -16 -9 -23 -9 -37 3 -11 9 -43 15 -90 16 -39 0 -82 6
-94 13 -12 6 -24 9 -27 6 -4 -3 -12 -1 -19 5 -9 8 -20 5 -41 -10 -24 -17 -35
-19 -82 -11 -31 5 -71 21 -94 37 -22 15 -54 38 -71 50 -17 12 -39 22 -50 22
-25 1 -63 43 -71 79 -5 23 2 46 29 100 46 88 47 112 3 80z m763 -468 c13 -7
21 -7 25 0 10 16 25 11 25 -8 0 -24 -60 -50 -133 -57 -32 -3 -91 -16 -130 -30
-68 -22 -181 -31 -154 -12 8 5 4 7 -10 4 -11 -3 -34 4 -49 14 -16 10 -57 21
-96 25 -37 4 -68 11 -68 16 0 6 -11 7 -25 4 -14 -4 -25 -2 -25 3 0 7 47 9 127
6 91 -3 142 0 178 10 58 16 125 18 142 3 9 -7 22 -7 41 1 16 7 45 13 65 14 20
1 39 6 43 10 10 10 22 9 44 -3z m-602 -119 c21 -13 10 -43 -20 -60 -32 -18
-37 -15 -45 33 -5 34 -4 36 23 36 16 0 35 -4 42 -9z m-164 -164 c7 -7 16 -26
19 -42 l7 -30 -25 28 c-33 38 -34 78 -1 44z m1109 -387 c-3 -11 -9 -20 -14
-20 -10 0 -12 24 -2 33 13 13 21 7 16 -13z m-23 -70 c0 -5 -5 -10 -11 -10 -5
0 -7 5 -4 10 3 6 8 10 11 10 2 0 4 -4 4 -10z m-705 -550 c3 -5 2 -10 -4 -10
-5 0 -13 5 -16 10 -3 6 -2 10 4 10 5 0 13 -4 16 -10z m65 -26 c0 -2 -7 -4 -15
-4 -8 0 -15 4 -15 10 0 5 7 7 15 4 8 -4 15 -8 15 -10z m710 2 c0 -3 -4 -8 -10
-11 -5 -3 -10 -1 -10 4 0 6 5 11 10 11 6 0 10 -2 10 -4z m-600 -36 c0 -5 -4
-10 -10 -10 -5 0 -10 5 -10 10 0 6 5 10 10 10 6 0 10 -4 10 -10z m420 -120 c0
-17 -2 -19 -14 -8 -14 13 -12 28 5 28 5 0 9 -9 9 -20z m105 -77 c-11 -3 -23
-10 -27 -17 -5 -7 -8 -5 -8 7 0 12 7 17 28 16 21 -1 22 -2 7 -6z m-65 -24 c0
-5 -9 -9 -20 -9 -11 0 -20 -4 -20 -10 0 -5 -7 -7 -15 -4 -22 9 -18 19 13 30
29 11 42 9 42 -7z m-240 1 c0 -5 -7 -10 -15 -10 -8 0 -15 5 -15 10 0 6 7 10
15 10 8 0 15 -4 15 -10z m145 -19 c3 -5 2 -12 -2 -14 -16 -10 -118 -11 -118
-2 0 6 16 9 35 7 19 -1 42 2 50 8 19 12 27 13 35 1z m-145 -26 c0 -8 -7 -15
-15 -15 -16 0 -20 12 -8 23 11 12 23 8 23 -8z m292 -67 c-9 -9 -15 -9 -24 0
-10 10 -10 15 2 22 20 12 38 -6 22 -22z m106 8 c3 -13 -1 -17 -14 -14 -11 2
-20 11 -22 22 -3 13 1 17 14 14 11 -2 20 -11 22 -22z m42 -22 c0 -8 -4 -12
-10 -9 -5 3 -10 10 -10 16 0 5 5 9 10 9 6 0 10 -7 10 -16z m-160 -46 c0 -25
-3 -29 -10 -18 -13 20 -13 50 0 50 6 0 10 -15 10 -32z m110 22 c0 -6 -7 -13
-15 -16 -17 -7 -21 -34 -5 -34 6 0 10 -7 10 -15 0 -25 -36 -18 -37 8 -2 44 7
67 27 67 11 0 20 -5 20 -10z m-222 -38 c4 -26 -19 -30 -39 -6 -10 13 -10 17 2
25 20 13 34 6 37 -19z m269 -4 c-3 -8 -6 -5 -6 6 -1 11 2 17 5 13 3 -3 4 -12
1 -19z m-382 -18 c3 -5 1 -10 -4 -10 -6 0 -11 -9 -11 -21 0 -11 -4 -17 -10
-14 -16 10 -12 55 4 55 8 0 18 -4 21 -10z m186 -2 c1 -7 1 -16 1 -19 -1 -4 -2
-23 -4 -43 -1 -20 -6 -36 -10 -36 -10 0 -22 46 -15 57 3 5 2 15 -3 23 -7 11
-10 7 -15 -13 -8 -29 -25 -37 -25 -12 0 18 -16 20 -23 3 -3 -7 -6 -4 -6 7 -1
15 8 24 32 32 46 15 67 15 68 1z m-124 -30 c-3 -8 -6 -5 -6 6 -1 11 2 17 5 13
3 -3 4 -12 1 -19z m-560 -40 c-3 -8 -6 -5 -6 6 -1 11 2 17 5 13 3 -3 4 -12 1
-19z m720 -20 c-3 -7 -5 -2 -5 12 0 14 2 19 5 13 2 -7 2 -19 0 -25z m-397 -8
c0 -5 -2 -10 -4 -10 -3 0 -8 5 -11 10 -3 6 -1 10 4 10 6 0 11 -4 11 -10z m310
0 c0 -5 -5 -10 -11 -10 -5 0 -7 5 -4 10 3 6 8 10 11 10 2 0 4 -4 4 -10z m170
-20 c0 -5 -4 -10 -10 -10 -5 0 -10 5 -10 10 0 6 5 10 10 10 6 0 10 -4 10 -10z
m-200 -30 c0 -5 -4 -10 -10 -10 -5 0 -10 5 -10 10 0 6 5 10 10 10 6 0 10 -4
10 -10z m-534 -38 c-11 -11 -16 -12 -16 -4 0 18 24 43 29 30 2 -5 -4 -17 -13
-26z m-296 -83 c0 -11 -4 -18 -10 -14 -5 3 -7 12 -3 20 7 21 13 19 13 -6z"/>
<path d="M3520 3500 c0 -5 5 -10 10 -10 6 0 10 5 10 10 0 6 -4 10 -10 10 -5 0
-10 -4 -10 -10z"/>
<path d="M3840 3016 c0 -9 7 -16 16 -16 9 0 14 5 12 12 -6 18 -28 21 -28 4z"/>
<path d="M3237 2983 c-14 -13 -6 -23 18 -23 16 0 25 6 25 15 0 15 -31 21 -43
8z"/>
<path d="M3866 2971 c-11 -17 20 -44 42 -37 29 10 28 24 -4 36 -31 12 -32 12
-38 1z"/>
<path d="M4480 2891 c0 -5 7 -12 16 -15 14 -5 15 -4 4 9 -14 17 -20 19 -20 6z"/>
<path d="M3905 2870 c3 -5 12 -7 20 -3 21 7 19 13 -6 13 -11 0 -18 -4 -14 -10z"/>
<path d="M5231 2661 c-11 -7 -11 -9 0 -13 8 -3 22 -3 32 0 15 4 16 7 5 13 -16
11 -20 11 -37 0z"/>
<path d="M5228 2593 c7 -3 16 -2 19 1 4 3 -2 6 -13 5 -11 0 -14 -3 -6 -6z"/>
<path d="M3305 2490 c-3 -5 -1 -10 4 -10 6 0 11 5 11 10 0 6 -2 10 -4 10 -3 0
-8 -4 -11 -10z"/>
<path d="M3532 2461 c-10 -6 -10 -10 3 -21 13 -11 15 -9 15 9 0 24 0 24 -18
12z"/>
<path d="M4199 2082 c-8 -23 -16 -29 -41 -30 -17 0 -34 -6 -38 -12 -12 -19 0
-50 19 -50 14 0 14 2 1 10 -8 5 -13 10 -10 11 3 0 13 2 22 4 26 5 78 57 78 77
0 28 -20 21 -31 -10z"/>
<path d="M4557 2064 c-4 -4 -7 -14 -7 -23 0 -11 3 -12 11 -4 6 6 10 16 7 23
-2 6 -7 8 -11 4z"/>
<path d="M2026 2021 c-9 -13 0 -450 10 -483 4 -12 0 -18 -10 -18 -9 0 -16 8
-16 18 0 25 -87 29 -93 4 -4 -16 -5 -16 -6 1 -2 38 -24 13 -65 -75 -23 -51
-48 -115 -55 -143 -7 -27 -19 -63 -26 -80 -7 -16 -19 -59 -25 -95 -10 -52 -20
-73 -50 -105 -48 -51 -130 -164 -130 -179 0 -6 -9 -17 -20 -24 -11 -7 -27 -30
-36 -51 -8 -21 -28 -48 -44 -60 -17 -12 -30 -30 -30 -41 0 -10 -19 -47 -43
-82 -24 -35 -47 -76 -51 -92 -4 -16 -29 -51 -57 -78 -29 -30 -49 -59 -49 -73
0 -32 -20 -87 -40 -110 -9 -11 -34 -51 -55 -90 -56 -105 -62 -118 -70 -142
l-6 -23 479 0 480 0 7 39 c4 22 16 57 27 78 28 54 48 122 48 164 0 45 29 78
100 114 44 22 55 24 66 13 11 -11 31 -134 59 -355 l7 -53 728 0 c475 0 731 3
735 10 8 12 45 13 45 1 0 -5 36 -8 79 -8 73 1 80 3 90 25 6 12 11 40 11 62 0
47 17 62 26 23 4 -15 11 -31 17 -34 16 -11 -2 -59 -26 -69 -20 -8 -19 -9 11
-9 29 -1 32 2 32 28 0 18 8 35 19 43 10 7 22 32 26 56 6 40 5 42 -17 42 -22 0
-24 -4 -20 -31 4 -24 1 -30 -9 -27 -10 3 -14 22 -14 59 l0 54 -31 -3 c-26 -2
-33 2 -43 26 -7 16 -11 33 -10 38 6 20 -12 50 -36 61 -24 11 -25 10 -24 -25 1
-21 3 -29 6 -19 2 9 11 17 19 17 18 0 19 -50 0 -75 -12 -16 -16 -17 -29 -6 -9
7 -18 25 -20 39 -4 26 -5 26 -12 5 -9 -26 -35 -38 -46 -21 -6 9 -10 8 -15 -5
-8 -21 -53 -19 -71 3 -19 23 -15 31 12 24 21 -5 25 -3 25 15 0 12 -6 21 -15
21 -8 0 -15 5 -15 10 0 18 -18 11 -25 -10 -4 -13 -15 -20 -31 -20 -28 0 -29 2
-9 41 9 16 20 27 26 23 11 -6 39 13 39 27 0 5 -6 9 -14 9 -20 0 -27 27 -10 41
16 13 2 39 -22 39 -8 0 -14 4 -14 9 0 15 32 22 46 10 11 -9 14 -6 14 14 0 14
-5 29 -10 32 -8 5 -7 11 1 21 9 11 6 22 -10 49 -26 45 -26 49 -1 42 13 -3 20
0 20 9 0 9 -12 14 -35 14 -38 0 -44 -10 -19 -34 18 -18 10 -38 -11 -29 -9 3
-15 18 -15 38 0 27 -4 34 -25 37 -40 8 -75 -2 -75 -22 0 -19 -30 -50 -48 -50
-19 0 -14 20 6 21 14 0 14 2 -3 9 -30 13 -38 12 -32 -4 4 -9 -4 -18 -21 -24
-40 -14 -72 -13 -72 4 0 8 -8 14 -19 14 -18 0 -31 -25 -31 -62 0 -10 -10 -28
-22 -40 l-23 -23 -22 25 -22 25 -1 -22 c0 -28 -20 -30 -27 -3 -5 19 -43 29
-43 12 0 -5 -10 -8 -21 -8 -12 1 -24 -5 -26 -11 -3 -8 4 -13 15 -13 28 0 51
-31 42 -55 -8 -20 -9 -19 -9 1 -1 17 -6 20 -25 17 -13 -3 -33 0 -45 6 -14 8
-21 8 -21 1 0 -5 -7 -10 -15 -10 -8 0 -15 -8 -15 -17 -1 -16 -2 -16 -10 -2
-12 20 -100 26 -100 7 0 -10 -2 -10 -8 -1 -6 10 -16 10 -45 1 -20 -6 -37 -15
-37 -20 0 -4 -7 -8 -15 -8 -8 0 -15 -4 -15 -10 0 -5 7 -10 15 -10 10 0 15 -10
15 -27 l0 -28 -24 28 c-13 15 -30 27 -39 27 -8 0 -18 6 -20 13 -3 6 -6 2 -6
-10 -1 -13 -7 -23 -16 -23 -9 0 -12 6 -9 15 4 8 1 15 -4 15 -6 0 -12 -10 -14
-22 -3 -18 -10 -22 -51 -24 -26 -1 -50 2 -53 7 -3 5 -1 9 4 9 6 0 9 8 8 18 0
11 6 17 19 17 11 1 26 4 33 9 23 14 -5 32 -55 34 -26 1 -49 5 -51 9 -1 5 -11
23 -23 42 -18 30 -24 33 -59 29 -40 -3 -40 -3 -41 32 l-1 35 -8 -29 c-6 -18
-5 -35 2 -46 9 -14 9 -22 0 -32 -9 -11 -9 -17 0 -26 9 -9 5 -12 -16 -12 -23 0
-26 3 -17 13 12 15 5 27 -15 27 -7 0 -12 -12 -12 -28 1 -38 -11 -74 -24 -66
-6 4 -6 10 1 17 24 24 2 117 -28 117 -10 0 -12 -10 -7 -40 5 -32 3 -40 -9 -40
-8 0 -15 7 -15 15 0 8 -4 15 -9 15 -12 0 -20 59 -9 66 15 10 8 32 -12 37 -21
5 -28 27 -10 27 13 0 10 99 -3 107 -5 3 -13 1 -19 -5 -6 -6 -6 -12 1 -16 19
-12 13 -80 -8 -93 -17 -11 -20 -8 -25 25 -15 91 -18 120 -18 160 0 23 -4 42
-8 42 -5 0 -9 8 -9 18 0 40 -19 161 -27 173 -9 14 -12 47 -13 127 -1 30 -5 42
-16 42 -9 0 -15 9 -15 23 0 13 -4 27 -10 33 -11 11 -2 84 11 84 5 0 9 10 9 21
0 18 -3 19 -15 9 -20 -17 -38 -2 -31 25 3 13 2 25 -3 27 -6 2 -11 44 -12 93
-1 50 -6 108 -12 130 -5 22 -11 72 -13 110 -9 167 -19 260 -28 246z m-26 -531
c0 -16 -4 -30 -10 -30 -5 0 -10 14 -10 30 0 17 5 30 10 30 6 0 10 -13 10 -30z
m27 -73 c-6 -20 -27 -19 -27 2 0 14 5 19 15 14 9 -3 14 -10 12 -16z m-30 -239
c-3 -8 -6 -5 -6 6 -1 11 2 17 5 13 3 -3 4 -12 1 -19z m1659 -535 c-10 -10 -19
5 -10 18 6 11 8 11 12 0 2 -7 1 -15 -2 -18z m-46 -35 c0 -16 -3 -19 -11 -11
-6 6 -8 16 -5 22 11 17 16 13 16 -11z m-1340 -18 c0 -5 -7 -10 -15 -10 -8 0
-15 5 -15 10 0 6 7 10 15 10 8 0 15 -4 15 -10z m1460 -21 c0 -5 -7 -9 -15 -9
-15 0 -20 12 -9 23 8 8 24 -1 24 -14z m-1463 -31 c-3 -8 -6 -5 -6 6 -1 11 2
17 5 13 3 -3 4 -12 1 -19z m293 -33 c0 -15 6 -25 14 -25 8 0 17 -9 21 -19 8
-27 -4 -71 -21 -71 -19 0 -37 38 -30 66 5 18 2 24 -10 24 -11 0 -14 5 -10 16
3 9 6 20 6 25 0 5 7 9 15 9 9 0 15 -9 15 -25z m915 5 c3 -5 1 -10 -4 -10 -6 0
-11 5 -11 10 0 6 2 10 4 10 3 0 8 -4 11 -10z m105 -36 c0 -2 -7 -4 -15 -4 -8
0 -15 4 -15 10 0 5 7 7 15 4 8 -4 15 -8 15 -10z m127 -10 c8 -20 -17 -36 -34
-22 -10 8 -10 14 -2 24 15 18 28 18 36 -2z m-67 -14 c0 -5 -7 -10 -15 -10 -8
0 -15 5 -15 10 0 6 7 10 15 10 8 0 15 -4 15 -10z m-100 -20 c0 -5 -4 -10 -10
-10 -5 0 -10 5 -10 10 0 6 5 10 10 10 6 0 10 -4 10 -10z m158 -19 c10 -6 6
-10 -15 -14 -33 -6 -44 0 -23 13 18 12 22 12 38 1z m-1062 -68 c-10 -10 -19 5
-10 18 6 11 8 11 12 0 2 -7 1 -15 -2 -18z m914 12 c0 -8 -4 -15 -10 -15 -5 0
-10 7 -10 15 0 8 5 15 10 15 6 0 10 -7 10 -15z m-983 -42 c-3 -10 -5 -4 -5 12
0 17 2 24 5 18 2 -7 2 -21 0 -30z m1033 -43 c0 -5 -2 -10 -4 -10 -3 0 -8 5
-11 10 -3 6 -1 10 4 10 6 0 11 -4 11 -10z m140 -49 c0 -13 -9 -20 -30 -23 -26
-4 -30 -1 -30 19 0 19 5 23 30 23 23 0 30 -5 30 -19z m107 -13 c-11 -5 -26
-26 -34 -47 -14 -32 -17 -34 -24 -16 -4 11 -8 33 -8 48 -1 27 1 28 29 22 25
-5 30 -3 30 11 0 15 2 16 13 5 10 -10 8 -14 -6 -23z m153 3 c0 -5 9 -11 20
-14 11 -3 20 -10 20 -16 0 -16 -33 -27 -38 -13 -2 7 -10 12 -17 12 -17 0 -28
17 -20 30 8 12 35 13 35 1z m-374 -93 c10 -11 -7 -30 -22 -24 -8 3 -14 1 -14
-4 0 -6 -9 -10 -20 -10 -14 0 -20 7 -20 23 0 20 5 23 35 22 18 0 37 -4 41 -7z
m134 -4 c0 -8 -5 -12 -10 -9 -6 4 -8 11 -5 16 9 14 15 11 15 -7z m50 -14 c0
-15 -6 -20 -27 -19 -27 0 -27 1 -5 9 12 5 22 14 22 20 0 5 2 10 5 10 3 0 5 -9
5 -20z m-130 -30 c0 -5 -2 -10 -4 -10 -3 0 -8 5 -11 10 -3 6 -1 10 4 10 6 0
11 -4 11 -10z m-71 -37 c23 -6 23 -7 5 -13 -21 -8 -44 -2 -44 11 0 11 7 11 39
2z"/>
<path d="M2976 2008 c-3 -13 -1 -27 4 -32 7 -7 10 1 10 22 0 37 -5 41 -14 10z"/>
<path d="M3111 1934 c0 -11 3 -14 6 -6 3 7 2 16 -1 19 -3 4 -6 -2 -5 -13z"/>
<path d="M2120 1896 c0 -9 7 -16 16 -16 17 0 14 22 -4 28 -7 2 -12 -3 -12 -12z"/>
<path d="M4385 1900 c-3 -5 -1 -10 4 -10 6 0 11 5 11 10 0 6 -2 10 -4 10 -3 0
-8 -4 -11 -10z"/>
<path d="M4321 1874 c0 -11 3 -14 6 -6 3 7 2 16 -1 19 -3 4 -6 -2 -5 -13z"/>
<path d="M4060 1846 c0 -2 7 -7 16 -10 8 -3 12 -2 9 4 -6 10 -25 14 -25 6z"/>
<path d="M4266 1838 c-2 -7 -8 -29 -15 -49 -14 -46 -14 -49 5 -49 8 0 12 5 9
10 -3 6 -2 10 4 10 5 0 9 20 9 45 -1 44 -6 57 -12 33z"/>
<path d="M4290 1809 c0 -38 24 -35 28 4 2 19 -1 27 -12 27 -11 0 -16 -10 -16
-31z"/>
<path d="M4138 1813 c7 -3 16 -2 19 1 4 3 -2 6 -13 5 -11 0 -14 -3 -6 -6z"/>
<path d="M4212 1798 c-7 -7 -12 -18 -12 -25 0 -7 -4 -13 -10 -13 -5 0 -10 -7
-10 -15 0 -25 20 -17 31 12 6 15 15 30 21 34 6 4 6 9 1 12 -6 4 -15 1 -21 -5z"/>
<path d="M4105 1750 c4 -6 11 -8 16 -5 14 9 11 15 -7 15 -8 0 -12 -5 -9 -10z"/>
<path d="M3090 1720 c0 -5 5 -10 10 -10 6 0 10 5 10 10 0 6 -4 10 -10 10 -5 0
-10 -4 -10 -10z"/>
<path d="M4305 1690 c-3 -5 -1 -10 4 -10 6 0 11 5 11 10 0 6 -2 10 -4 10 -3 0
-8 -4 -11 -10z"/>
<path d="M6253 1660 c-13 -10 -23 -27 -23 -38 0 -11 -6 -22 -13 -25 -7 -3 -20
-24 -27 -48 -8 -24 -31 -77 -51 -118 -21 -41 -35 -79 -33 -86 3 -7 -2 -15 -10
-18 -9 -4 -16 -13 -16 -22 0 -8 -4 -15 -8 -15 -4 0 -14 -20 -21 -44 -7 -25
-16 -46 -19 -48 -4 -2 -15 -19 -25 -38 -9 -19 -26 -49 -37 -66 -11 -17 -31
-75 -46 -130 -40 -155 -41 -157 -53 -187 -6 -16 -11 -38 -11 -50 0 -12 -7 -35
-15 -51 -8 -15 -15 -40 -15 -55 0 -14 -7 -39 -15 -55 -8 -15 -15 -35 -15 -42
0 -8 -7 -14 -15 -14 -8 0 -26 -5 -40 -12 -24 -11 -26 -16 -23 -59 2 -37 0 -45
-10 -37 -8 7 -10 23 -6 44 5 27 3 34 -9 34 -8 0 -21 14 -29 30 -7 17 -19 30
-26 30 -18 0 -4 -50 20 -71 24 -22 23 -49 -2 -49 -11 0 -25 -9 -32 -20 -7 -11
-17 -20 -21 -20 -12 0 -31 21 -46 49 -12 22 -13 22 -26 4 -13 -17 -14 -17 -15
0 0 26 -29 21 -42 -8 -9 -20 -14 -23 -26 -13 -12 11 -14 5 -11 -40 4 -48 2
-52 -17 -52 -13 0 -24 -8 -27 -20 -7 -26 -33 -26 -49 0 -7 11 -21 20 -31 20
-24 0 -17 22 11 35 13 6 20 17 19 30 -1 13 3 19 14 17 9 -1 22 4 29 13 10 12
8 16 -16 25 -20 8 -30 8 -32 1 -2 -6 -12 -11 -23 -11 -14 0 -19 -7 -19 -25 0
-13 -6 -28 -12 -32 -7 -4 -13 -14 -13 -22 0 -8 -18 -19 -40 -25 -26 -8 -36
-14 -28 -19 7 -5 12 -23 10 -42 -2 -31 -17 -40 -17 -9 0 8 -4 14 -10 14 -5 0
-10 -5 -10 -11 0 -14 -25 -39 -39 -39 -6 0 -11 5 -11 10 0 6 -18 10 -40 10
-27 0 -38 -4 -35 -13 2 -6 0 -37 -4 -67 l-9 -55 -1 51 c-1 53 -14 70 -45 58
-8 -3 -17 0 -21 5 -3 6 -11 9 -16 6 -5 -4 -9 -2 -9 4 0 5 8 12 18 14 13 4 13
5 -4 6 -29 1 -46 -21 -47 -66 -2 -26 -7 -38 -17 -38 -11 0 -14 9 -12 33 2 17
-1 32 -6 32 -6 0 -10 -16 -10 -36 0 -49 -9 -53 -37 -19 -24 30 -28 28 -26 -10
1 -25 -5 -34 -48 -64 -23 -16 -36 -20 -39 -13 -2 7 -17 12 -33 12 -23 0 -29
-5 -29 -21 0 -11 -5 -29 -10 -40 -11 -19 0 -19 663 -19 l674 0 12 22 11 23 -6
-22 c-5 -20 -1 -23 24 -23 22 0 32 6 37 23 l8 22 4 -22 c2 -13 9 -23 14 -23
12 0 12 27 -1 35 -16 10 -11 43 8 48 16 4 16 5 0 6 -10 0 -18 6 -18 11 0 6 -5
10 -12 10 -6 0 -22 10 -35 22 -18 17 -26 19 -32 10 -6 -10 -13 -9 -31 6 l-23
18 41 35 c23 20 63 41 92 49 27 7 59 21 69 31 21 20 134 56 205 65 l46 7 0 68
c0 38 -2 69 -5 69 -3 0 -20 -10 -37 -23 -22 -15 -32 -18 -35 -10 -3 9 -10 10
-22 4 -9 -5 -49 -13 -89 -16 -40 -4 -74 -11 -77 -15 -2 -3 -25 -6 -50 -5 -25
1 -48 -2 -51 -6 -3 -5 -16 -9 -30 -9 -29 0 -84 -26 -84 -40 0 -6 -11 -10 -25
-10 -22 0 -24 3 -16 19 21 38 152 86 385 141 108 26 136 42 136 81 0 26 -3 29
-34 29 -19 0 -38 -5 -41 -10 -3 -6 -19 -10 -35 -10 -16 0 -31 -4 -34 -8 -3 -5
-45 -14 -93 -21 -48 -6 -104 -15 -123 -18 -19 -3 -42 -7 -50 -8 -8 -1 -32 -6
-52 -10 -33 -6 -38 -5 -38 11 1 18 77 84 97 84 5 0 25 7 43 17 19 9 67 18 107
21 40 3 76 9 79 13 3 5 27 9 54 9 27 0 52 5 55 10 3 6 19 10 36 10 24 0 29 4
29 25 0 14 -4 25 -10 25 -5 0 -10 -7 -10 -15 0 -20 -38 -34 -73 -28 -28 5 -35
17 -17 28 6 3 10 15 10 26 0 31 -36 23 -50 -11 -12 -30 -42 -41 -55 -20 -3 5
-16 10 -28 11 -12 0 -49 2 -82 4 -101 4 -121 26 -85 91 16 28 19 43 12 58 -15
32 -13 75 3 100 9 13 17 43 19 68 2 24 8 53 14 64 5 10 13 34 17 52 3 18 11
30 16 27 5 -4 6 1 3 10 -4 9 2 23 15 34 12 11 23 33 26 50 2 16 10 43 18 58
13 26 66 136 117 246 12 26 21 50 19 52 -2 2 -14 -5 -26 -15z m-712 -1276 c10
-13 10 -17 -2 -25 -18 -11 -49 -12 -49 0 0 5 -3 16 -6 25 -8 22 39 22 57 0z
m-91 -81 c-1 -18 -18 -35 -24 -24 -4 6 -4 16 -1 21 7 12 25 13 25 3z m-170
-40 c0 -22 -2 -25 -10 -13 -13 20 -13 40 0 40 6 0 10 -12 10 -27z m133 -10 c7
-12 -11 -53 -23 -53 -5 0 -10 14 -10 30 0 28 21 42 33 23z m-83 -22 c0 -18
-18 -21 -30 -6 -10 13 -9 15 9 15 11 0 21 -4 21 -9z m-210 -21 c0 -5 -5 -12
-11 -16 -14 -8 -33 11 -25 25 7 11 36 4 36 -9z m115 -30 c-3 -6 -10 -10 -16
-10 -10 0 -12 33 -2 44 9 9 26 -22 18 -34z m27 18 c-7 -7 -12 -8 -12 -2 0 14
12 26 19 19 2 -3 -1 -11 -7 -17z m-318 -54 c3 -8 2 -12 -4 -9 -6 3 -10 10 -10
16 0 14 7 11 14 -7z m381 6 c-3 -5 -10 -10 -16 -10 -5 0 -9 5 -9 10 0 6 7 10
16 10 8 0 12 -4 9 -10z m-215 -27 c0 -22 -2 -25 -10 -13 -13 20 -13 40 0 40 6
0 10 -12 10 -27z m-207 -37 c-5 -10 -13 -12 -23 -6 -11 7 -12 11 0 25 16 20
36 4 23 -19z m-113 -56 c0 -5 -4 -10 -10 -10 -5 0 -10 5 -10 10 0 6 5 10 10
10 6 0 10 -4 10 -10z m120 -10 c0 -5 -2 -10 -4 -10 -3 0 -8 5 -11 10 -3 6 -1
10 4 10 6 0 11 -4 11 -10z"/>
<path d="M3370 1660 c-12 -8 -11 -10 8 -10 12 0 22 5 22 10 0 13 -11 13 -30 0z"/>
<path d="M3480 1650 c-12 -7 -12 -12 -2 -22 9 -9 15 -9 24 0 16 16 -2 34 -22
22z"/>
<path d="M3260 1528 c0 -4 16 -8 36 -8 19 0 33 4 29 9 -7 12 -65 11 -65 -1z"/>
<path d="M3151 1414 c0 -11 3 -14 6 -6 3 7 2 16 -1 19 -3 4 -6 -2 -5 -13z"/>
<path d="M3985 1270 c3 -5 8 -10 11 -10 2 0 4 5 4 10 0 6 -5 10 -11 10 -5 0
-7 -4 -4 -10z"/>
<path d="M3940 1245 c0 -8 5 -15 10 -15 6 0 10 7 10 15 0 8 -4 15 -10 15 -5 0
-10 -7 -10 -15z"/>
<path d="M3452 1157 c4 -47 16 -73 29 -60 10 10 -10 103 -22 103 -6 0 -9 -19
-7 -43z"/>
<path d="M3282 1170 c0 -14 2 -19 5 -12 2 6 2 18 0 25 -3 6 -5 1 -5 -13z"/>
<path d="M3352 1170 c0 -14 2 -19 5 -12 2 6 2 18 0 25 -3 6 -5 1 -5 -13z"/>
<path d="M2625 1070 c-3 -5 -1 -10 4 -10 6 0 11 5 11 10 0 6 -2 10 -4 10 -3 0
-8 -4 -11 -10z"/>
<path d="M3280 1070 c0 -5 5 -10 10 -10 6 0 10 5 10 10 0 6 -4 10 -10 10 -5 0
-10 -4 -10 -10z"/>
<path d="M3681 714 c0 -11 3 -14 6 -6 3 7 2 16 -1 19 -3 4 -6 -2 -5 -13z"/>
<path d="M3295 620 c-19 -7 -19 -8 -2 -15 12 -5 16 -14 12 -26 -5 -15 -1 -19
19 -19 29 0 31 5 14 43 -14 29 -14 29 -43 17z"/>
<path d="M5420 590 c0 -5 5 -10 10 -10 6 0 10 5 10 10 0 6 -4 10 -10 10 -5 0
-10 -4 -10 -10z"/>
<path d="M2406 571 c-3 -5 1 -11 9 -15 15 -6 29 7 18 18 -9 9 -21 8 -27 -3z"/>
<path d="M5540 555 c0 -8 -4 -15 -10 -15 -5 0 -10 -7 -10 -15 0 -22 33 -18 49
6 11 18 11 23 -1 30 -19 13 -28 11 -28 -6z"/>
<path d="M5460 544 c0 -8 5 -12 10 -9 6 3 10 10 10 16 0 5 -4 9 -10 9 -5 0
-10 -7 -10 -16z"/>
<path d="M3030 530 c0 -5 5 -10 10 -10 6 0 10 5 10 10 0 6 -4 10 -10 10 -5 0
-10 -4 -10 -10z"/>
<path d="M5585 489 c-4 -5 -4 -22 0 -37 l7 -27 19 23 c16 21 17 26 5 38 -17
17 -23 17 -31 3z"/>
<path d="M3826 475 c4 -8 7 -15 9 -15 1 0 8 7 15 15 10 13 9 15 -8 15 -15 0
-20 -5 -16 -15z"/>
<path d="M4215 410 c-3 -5 1 -10 9 -10 9 0 16 5 16 10 0 6 -4 10 -9 10 -6 0
-13 -4 -16 -10z"/>
<path d="M5143 394 c-3 -8 -1 -29 5 -47 l10 -32 1 43 c1 23 6 42 11 42 6 0 10
-7 10 -16 0 -8 5 -12 10 -9 6 3 10 13 10 21 0 19 -49 18 -57 -2z"/>
<path d="M5177 346 c-4 -10 -5 -21 -2 -24 9 -9 17 6 13 25 -3 17 -4 17 -11 -1z"/>
<path d="M5082 287 c-18 -21 1 -38 36 -31 36 7 41 19 13 34 -26 13 -36 13 -49
-3z"/>
<path d="M5027 283 c-11 -10 -8 -43 3 -43 6 0 10 4 10 9 0 5 3 16 6 25 6 16
-7 22 -19 9z"/>
<path d="M4081 234 c-1 -23 16 -34 55 -34 15 0 24 6 24 15 0 10 -10 15 -34 15
-19 0 -37 6 -39 13 -3 6 -6 2 -6 -9z"/>
<path d="M4282 173 c2 -23 -1 -29 -19 -31 -31 -4 -30 -31 0 -28 33 3 49 16 43
32 -3 8 1 14 10 14 11 0 14 6 10 16 -3 9 -6 18 -6 20 0 2 -9 4 -21 4 -16 0
-20 -5 -17 -27z"/>
<path d="M4720 130 c0 -5 5 -10 10 -10 6 0 10 5 10 10 0 6 -4 10 -10 10 -5 0
-10 -4 -10 -10z"/>
<path d="M6130 82 c0 -5 7 -13 16 -16 10 -4 14 -1 12 6 -5 15 -28 23 -28 10z"/>
</g>
</svg>
